<svg xmlns="http://www.w3.org/2000/svg" xmlns:xlink="http://www.w3.org/1999/xlink" width="391" height="957" viewBox="0 0 391 957">
  <defs>
    <clipPath id="clip-path">
      <rect id="Rectangle_372" data-name="Rectangle 372" width="391" height="957" transform="translate(2501 2088.83)" fill="#fff" stroke="#707070" strokeWidth="1"/>
    </clipPath>
  </defs>
  <g id="Mask_Group_18" data-name="Mask Group 18" transform="translate(-2501 -2088.83)" clip-path="url(#clip-path)">
    <g id="Group_3311" data-name="Group 3311" transform="translate(1203.385 3462.29)" opacity="0.149">
      <path id="Path_15" data-name="Path 15" d="M634.93,387.17Z" transform="translate(737.378 -1285.011)" fill="#74756f"/>
      <path id="Path_21" data-name="Path 21" d="M680.413,233.58Z" transform="translate(824.004 -1578.653)" fill="#74756f"/>
      <path id="Path_24" data-name="Path 24" d="M1232.325,321.178l-29.934,56.956-29.761,56.433-30.574,58.062L1111.6,550.662l-31.74,60.363-33.137,62.983-35.146,66.973L881.912,987.468l35.262,64.5,118.018-224.212L1079.6,743.31l37.473-71.2,34.944-66.361,32.67-62.052,32.176-61.148,31.012-58.878,31.039-58.79Q1256.551,341.824,1232.325,321.178ZM340.221,208.49l1.281,2.446L345,208.49Z" transform="translate(323.635 -1626.62)" fill="#74756f"/>
      <path id="Path_25" data-name="Path 25" d="M924.985,252.146,895.4,307.965l-12.752,24.081-16.192,30.545-13.74,25.945-15.9,30.079-29.124,55.325-29.84,56.343L747.389,587.5l-30.721,58-127.683,241.1L552.85,821.265,669.5,601.13l28.855-54.451,28.8-54.306,28.974-54.656,28.8-54.363,9.293-17.472,19.854-37.534L824.379,308.9l14.908-28.129,3.233-6.114,26.729-50.4a590.042,590.042,0,0,1,54.542,27.08h.172Z" transform="translate(580.454 -1596.49)" fill="#74756f"/>
      <path id="Path_26" data-name="Path 26" d="M1313.9,388.222l-34.563,65.488L1244.4,520.1l-37.857,71.924-41.288,78.329-49.3,93.469L1044.906,898.64,946.4,1085.29l-32.028,60.566H844.016l-1.864-3.552-30.748-58.5L518.793,526.826l-32.526-61.906-8.126-15.491-24.4-46.589-9.552-18.17V251.89l14.3,27.168,5.5,10.482,14.15,26.877,12.9,24.547L523.6,402.841l32.613,61.935,32.556,61.907,283.466,538.692,7.863,15,17.791-33.835,84.967-161.783,68.315-130.043,46.908-89.016,39.864-75.911,35.875-68.341,34.534-65.692,32.7-62.284,32.467-61.673Q1294.859,358.7,1313.9,388.222Z" transform="translate(372.713 -1543.646)" fill="#74756f"/>
    </g>
  </g>
</svg>
