<svg xmlns="http://www.w3.org/2000/svg" width="845.334" height="610.509" viewBox="0 0 845.334 610.509">
  <g id="ceo-signature" transform="translate(-118.104 -193.495)">
    <path id="Path_1512" data-name="Path 1512" d="M465,519.3c110.4-67.5,224.5-128.1,341.5-183.7,0-1.8.1-3.4,0-4.9-.1-1.6-.3-3.2-.5-5.6-2.3.8-4.3,1.5-6.3,2.2-12.3,4.3-24.6,8.9-37,12.8a71.626,71.626,0,0,1-17.7,3.2c-10.4.4-16-6.9-13.5-17a34.7,34.7,0,0,1,5-11.5,277.828,277.828,0,0,1,17.3-23.1c8.9-10.4,18.6-20,27.5-30.4,7.5-8.7,14.7-17.6,21.4-26.9A97.867,97.867,0,0,0,818.4,200a26.427,26.427,0,0,1,1.2-4c.8-1.9,2.4-3.1,4.3-2.2a5.475,5.475,0,0,1,2.5,3.6c.2,1.9-.4,4-.7,5.9-5.2,31.4-8.8,62.9-11,94.6-.2,2.4,0,4.8,0,8.2,2.4-.9,4.3-1.7,6.2-2.5,24.2-10.3,48.2-21.2,72.7-30.8,16.2-6.4,33.1-11.3,49.7-16.7a43.772,43.772,0,0,1,8.9-1.7c5.3-.5,9,1.4,10.6,5.1,1.5,3.5.4,7.2-3.8,10.5a95.02,95.02,0,0,1-13,8.7q-31.65,16.95-63.4,33.5c-20.5,10.6-41.2,21-61.8,31.5-1.8.9-3.5,1.9-5.8,3.2a91.059,91.059,0,0,0,3.8,24.1c1.8.1,3.3.2,5.1.3-1,2.9-2.4,4.8-5.1,4.9-2.9.2-4.4-2-5.1-4.3-1.4-4.2-2.4-8.5-3.5-12.8-.7-2.7-1.1-5.4-1.7-8.7-2.4,1.1-4.2,1.8-5.9,2.7C686,413.6,571.8,478.3,460.9,548.6a16.8,16.8,0,0,0-7.8,10.6c-9.6,35.3-19.5,70.5-29.3,105.8-.5,1.8-.9,3.7-1.3,5.8C495.7,626,568.3,581.5,640.9,537c3-1.9,5.9-4.1,9.8-6.8-3.5-.6-5.5.5-7.7,1.1-1.9.5-3.9,1.3-5.8,1.3a3.845,3.845,0,0,1-3-2.2c-.2-.9.8-3.1,1.6-3.3,6.5-1.1,13-2.1,19.6-2.6,2.3-.2,3.1,2.4,1.5,4.5a20.964,20.964,0,0,1-4.4,4c-6.4,4.2-12.7,8.5-19.2,12.5-53.2,32-106.4,64.2-158.2,98.5-16.9,11.2-33.6,22.8-50.7,33.8-5.2,3.4-7,7.8-7.5,14.2,1.9-.9,3.3-1.4,4.6-2.1,77-45.5,155.6-88.4,234.7-130.2,21.5-11.4,42.2-24.3,63.5-36,16.7-9.2,33.8-17.7,50.8-26.5a46.563,46.563,0,0,1,6.1-2.6c2.1-.7,4.1-.3,5.2,1.8,1.2,2.2.3,4-1.4,5.3a65.353,65.353,0,0,1-5.6,3.5c-22,12.6-44.3,24.6-65.9,37.7-54.8,33.3-107.5,69.9-160.4,106.2-30.7,21-61.7,41.6-92.7,62.1-7.9,5.2-16.2,9.7-24.5,14.2-5.7,3-11.6,5.8-18.7,3-1.4,5.6-2.6,10.6-4,15.6-.6,2.1-1.2,4.4-2.5,6a5.529,5.529,0,0,1-4.6,1.9,5.773,5.773,0,0,1-3.5-3.5,18.147,18.147,0,0,1-.3-6.6c.6-6.3,1.4-12.7,2.3-19.9-2.5,1.5-4.4,2.5-6.3,3.6-36.5,21.6-73,43.3-109.5,64.8-6.9,4.1-14.2,7.6-21.3,11.3a26.911,26.911,0,0,1-6.2,2.2,5.466,5.466,0,0,1-6.3-2.4,5.121,5.121,0,0,1,.6-6.2,21.4,21.4,0,0,1,4.2-4.3c5.4-4.5,10.8-9,16.4-13.3,43.1-32.7,87.4-63.7,132.6-93.4a16.029,16.029,0,0,0,7.4-10.2c9.5-35.1,19.3-70.2,28.9-105.2.6-2.1,1-4.2,1.9-7.8-3,1.9-4.9,2.9-6.6,4.1C378.3,602,321.9,640.7,265.5,679.4c-27.7,19-55.7,37.5-83.8,55.8-9.7,6.3-20.3,11.5-30.7,16.6a53.072,53.072,0,0,1-16.1,4.6c-10.8,1.4-17.7-5.1-16.7-15.9a47.292,47.292,0,0,1,4.2-16.2,314.129,314.129,0,0,1,17.4-31.7c23.2-36,50.6-68.5,80.4-99.2A1038.546,1038.546,0,0,1,386.9,454c15-10.1,30.4-19.8,47-27a105.951,105.951,0,0,1,21.1-6.8c12.3-2.4,20.5,4,22.8,16.5,1.6,8.5.8,16.9-.8,25.2-3.3,16.3-7.1,32.6-10.7,48.9-.6,2.7-1.3,5.4-1.9,8.1C464.2,518.8,464.6,519,465,519.3ZM130.6,742.2c3.3-.9,5.6-1.2,7.7-2.1a74.722,74.722,0,0,0,11.3-5.7c13.1-8.5,26.4-17,39.1-26.1,35-25,69.6-50.6,104.6-75.6,49.6-35.5,100.3-69.1,152.1-101.3,3.7-2.3,6-4.8,6.9-9.2,3.9-17.5,8.2-34.8,12-52.3,2.1-9.6,3.8-19.4,3.2-29.3-.7-10.2-5-13.7-15-11.6a84.253,84.253,0,0,0-15.4,5.1c-17.4,7.6-33.4,17.7-48.9,28.5A1002.673,1002.673,0,0,0,188,648.3c-16.2,19.7-31.5,40.2-44.7,62.1-4.8,7.9-9.3,16-11.6,25.1C131.2,737.3,131.1,739.2,130.6,742.2Zm681.6-508c-1.1.6-1.6.6-1.8.9-10.3,15.6-23.2,29.3-35.1,43.6-7.2,8.7-14.2,17.4-20.8,26.5-4,5.5-7.1,11.6-10.2,17.7-1.1,2.1-1.3,4.8-1.9,7.4,4.7,1.4,8.4.1,11.9-1.1,15.7-5.6,31.2-11.6,46.9-17.3,3.6-1.3,4.7-3.4,4.9-7.1.8-15,1.9-30,3.2-45C809.9,251.5,811.2,243.2,812.2,234.2ZM418,719.1c6.6-1.6,11.8-5,16.9-8.5q42.3-29.25,84.4-58.9a28.33,28.33,0,0,0,2.5-2.4,1.981,1.981,0,0,0-1.6.1q-49.95,29.7-99.7,59.5C416.1,711.6,416,712.1,418,719.1ZM814.4,331.6c34.5-16.7,68.4-32.4,101.2-50.7a16.49,16.49,0,0,0-6.2,1.4q-44.85,18.45-89.6,36.8c-6.2,2.6-6.2,2.5-5.9,9.2A26.362,26.362,0,0,0,814.4,331.6ZM405.9,690.4c-24.9,16.9-48.7,33.8-72,51.6a7.833,7.833,0,0,0,3.8-1.3c21-12.9,41.9-26,63-38.7C405.1,699.4,405.8,695.8,405.9,690.4Z" fill="#fff"/>
  </g>
</svg>
