<svg xmlns="http://www.w3.org/2000/svg" width="40" height="40" viewBox="0 0 40 40">
  <g id="Group_3347" data-name="Group 3347" transform="translate(-1179 -1236)">
    <circle id="Ellipse_6" data-name="Ellipse 6" cx="20" cy="20" r="20" transform="translate(1179 1236)" fill="#ccd7e0"/>
    <path id="map" d="M15.853,7.663A6.467,6.467,0,0,1,15.362,9.9a25.389,25.389,0,0,1-2.494,4.734,66.7,66.7,0,0,1-4.382,6,.739.739,0,0,1-1.226.035,58.812,58.812,0,0,1-5.668-8.124A17.881,17.881,0,0,1,.147,9.323,6.309,6.309,0,0,1,.53,4.6,7.692,7.692,0,0,1,6.258.136,7.944,7.944,0,0,1,15.72,6.3,7.943,7.943,0,0,1,15.853,7.663Zm-10.9-.684A2.858,2.858,0,0,0,7.879,9.767a2.855,2.855,0,0,0,2.883-2.811A2.853,2.853,0,0,0,7.855,4.168,2.859,2.859,0,0,0,4.954,6.979Z" transform="translate(1191.146 1246.03)" fill="#14334a"/>
  </g>
</svg>
