<svg id="Group_140" data-name="Group 140" xmlns="http://www.w3.org/2000/svg" width="38.632" height="8.424" viewBox="0 0 38.632 8.424">
  <path id="Path_164" data-name="Path 164" d="M328.087,431.76l3.4-6.8h-5.663v1.625h3.035l-3.4,6.8h6.1V431.76Z" transform="translate(-292.922 -424.961)" fill="#fff"/>
  <path id="Path_165" data-name="Path 165" d="M317.208,426.585a2.587,2.587,0,0,1,0,5.175H314.43v1.625h2.792a4.212,4.212,0,1,0,0-8.424H314.43v1.624Z" transform="translate(-290.307 -424.961)" fill="#fff"/>
  <path id="Path_166" data-name="Path 166" d="M306.082,426.585a2.587,2.587,0,0,1,0,5.175H303.3v1.625H306.1a4.212,4.212,0,1,0,0-8.424H303.3v1.624Z" transform="translate(-287.669 -424.961)" fill="#fff"/>
  <path id="Path_167" data-name="Path 167" d="M292.186,429.847v-4.886h1.624v4.886h0a1.934,1.934,0,0,0,3.868,0v-4.886H299.3v4.867a3.557,3.557,0,1,1-7.113,0Z" transform="translate(-285.033 -424.961)" fill="#fff"/>
  <path id="Path_168" data-name="Path 168" d="M287.817,428.8l.011,0a2.519,2.519,0,0,0,.362-1.3,2.569,2.569,0,0,0-2.145-2.534h-3.236v1.624h2.847a.91.91,0,0,1,0,1.819h-2.847v1.625h3.65a.865.865,0,0,1,0,1.73h-3.65v1.625h3.676a2.486,2.486,0,0,0,1.333-4.586Z" transform="translate(-282.809 -424.961)" fill="#fff"/>
</svg>
