<svg xmlns="http://www.w3.org/2000/svg" width="115" height="115" viewBox="0 0 115 115">
  <g id="Pause" transform="translate(1474 -3981)">
    <path id="fi-rr-play-alt" d="M91.042,115H23.958A23.987,23.987,0,0,1,0,91.042V23.958A23.987,23.987,0,0,1,23.958,0H91.042A23.987,23.987,0,0,1,115,23.958V91.042A23.987,23.987,0,0,1,91.042,115ZM23.958,9.583A14.375,14.375,0,0,0,9.583,23.958V91.042a14.375,14.375,0,0,0,14.375,14.375H91.042a14.375,14.375,0,0,0,14.375-14.375V23.958A14.375,14.375,0,0,0,91.042,9.583Z" transform="translate(-1474 3981)" fill="#fff"/>
    <g id="Icon_ionic-ios-pause" data-name="Icon ionic-ios-pause" transform="translate(-1437.958 4012.236)">
      <path id="Path_4696" data-name="Path 4696" d="M21.147,60.813H10.368A1.359,1.359,0,0,1,9,59.461V8.1A1.359,1.359,0,0,1,10.368,6.75H21.147A1.359,1.359,0,0,1,22.516,8.1v51.36A1.359,1.359,0,0,1,21.147,60.813Z" transform="translate(-9 -6.75)" fill="#fff"/>
      <path id="Path_4697" data-name="Path 4697" d="M33.522,60.813H22.743a1.359,1.359,0,0,1-1.368-1.352V8.1A1.359,1.359,0,0,1,22.743,6.75H33.522A1.359,1.359,0,0,1,34.891,8.1v51.36A1.359,1.359,0,0,1,33.522,60.813Z" transform="translate(8.36 -6.75)" fill="#fff"/>
    </g>
  </g>
</svg>
