<svg id="Group_123" data-name="Group 123" xmlns="http://www.w3.org/2000/svg" width="37.388" height="8.417" viewBox="0 0 37.388 8.417">
  <path id="Path_114" data-name="Path 114" d="M271.167,354.663c-.908.84-1.669,1.5-2.382,2.218-.573.573-1.052.627-1.647.012-.7-.725-1.475-1.379-2.374-2.208,0,1.881-.007,3.548,0,5.214,0,.512-.012,1.049-.67,1.035-.6-.013-.59-.538-.589-1,.006-2.093,0-4.186.005-6.279,0-.364-.1-.79.337-.992.486-.222.76.163,1.055.435.858.79,1.725,1.571,2.553,2.392.367.365.593.386.976,0,.871-.874,1.8-1.691,2.705-2.53.254-.235.51-.495.9-.3.364.185.376.524.374.883-.008,2.161-.011,4.323,0,6.485,0,.463-.093.881-.6.9-.6.023-.656-.448-.653-.936C271.174,358.3,271.167,356.6,271.167,354.663Z" transform="translate(-252.558 -352.572)" fill="#14334a"/>
  <path id="Path_115" data-name="Path 115" d="M225.762,352.534c.686,0,1.373,0,2.06,0,.472,0,1.05-.1,1.082.611.034.751-.562.63-1.027.632-1.339.007-2.678.017-4.016,0-.844-.013-1.481.317-1.473,1.188.007.8.6,1.162,1.413,1.146.892-.018,1.786-.025,2.677,0a2.4,2.4,0,1,1,.068,4.789c-1.509.049-3.02.009-4.531.013-.455,0-.86-.1-.853-.646.007-.579.457-.58.889-.578q2.06.008,4.119,0c.8,0,1.481-.238,1.492-1.17s-.642-1.183-1.464-1.181c-.961,0-1.924.02-2.881-.043a2.339,2.339,0,0,1-2.2-2.4,2.437,2.437,0,0,1,2.277-2.355c.787-.044,1.578-.008,2.368-.008Z" transform="translate(-218.956 -352.517)" fill="#14334a"/>
  <path id="Path_116" data-name="Path 116" d="M210.7,356.827c0-1.1,0-2.2,0-3.295,0-.436.017-.875.586-.882.471-.006.65.366.652.771q.022,3.4,0,6.8c0,.41-.18.775-.645.774-.556,0-.606-.416-.6-.868C210.706,359.024,210.7,357.925,210.7,356.827Z" transform="translate(-210.691 -352.617)" fill="#14334a"/>
  <path id="Path_117" data-name="Path 117" d="M311.207,356.713c0-.823-.017-1.647,0-2.469a1.607,1.607,0,0,1,1.64-1.723c1.474-.041,2.949-.035,4.423,0a1.592,1.592,0,0,1,1.683,1.585c.057,1.713.054,3.429.005,5.142a1.587,1.587,0,0,1-1.652,1.623c-1.472.054-2.95.054-4.422,0a1.626,1.626,0,0,1-1.679-1.792C311.194,358.291,311.207,357.5,311.207,356.713Zm1.229,2.18c-.009.5.2.773.717.773,1.3,0,2.6,0,3.9,0,.513,0,.722-.306.721-.8q0-2.155,0-4.311c0-.542-.214-.816-.8-.806q-1.9.032-3.8,0c-.531-.009-.747.221-.741.731.008.718,0,1.437,0,2.155C312.44,357.388,312.45,358.141,312.436,358.893Z" transform="translate(-290.368 -352.492)" fill="#14334a"/>
  <path id="Path_118" data-name="Path 118" d="M353.218,356.776c0-1.064.022-2.129-.007-3.193-.02-.733.251-1.075,1.019-1.057,1.338.032,2.678-.016,4.017.018a2.768,2.768,0,0,1,2.805,2.9q.012,1.288,0,2.575a2.725,2.725,0,0,1-2.712,2.878c-1.4.064-2.815.008-4.222.017-.653,0-.922-.3-.906-.948C353.236,358.9,353.218,357.84,353.218,356.776Zm2.106-3c-.641-.066-.907.106-.879.821.058,1.471.032,2.945.009,4.418-.007.463.092.691.616.675,1.026-.033,2.056.019,3.082-.018a1.578,1.578,0,0,0,1.652-1.688c.011-.342,0-.685,0-1.027,0-3.059-.111-3.171-3.148-3.171A13.027,13.027,0,0,1,355.324,353.774Z" transform="translate(-323.669 -352.519)" fill="#14334a"/>
  <path id="Path_119" data-name="Path 119" d="M328.314,369.348c-.024.449-.074.889-.608.924s-.664-.337-.653-.806c.011-.451-.029-.948.605-.953C328.2,368.508,328.262,368.956,328.314,369.348Z" transform="translate(-302.933 -365.192)" fill="#14334a"/>
</svg>
