<svg xmlns="http://www.w3.org/2000/svg" width="101.102" height="22.573" viewBox="0 0 101.102 22.573">
  <g id="Group_3326" data-name="Group 3326" transform="translate(533.876 -373.317)">
    <path id="Path_4690" data-name="Path 4690" d="M-492.194,382.332c.2-.183.372-.331.536-.484l8.332-7.755c.165-.153.329-.31.507-.447a1.534,1.534,0,0,1,1.68-.148,1.5,1.5,0,0,1,.948,1.389c.006.184.005.369.005.553v18.337c0,.164-.007.328,0,.492a1.688,1.688,0,0,1-1.616,1.612,1.668,1.668,0,0,1-1.7-1.583c-.008-.164,0-.328,0-.492V378.977c-.226-.044-.3.132-.413.232q-3.411,3.153-6.815,6.315c-.12.111-.236.228-.363.331a1.645,1.645,0,0,1-2.193-.011c-.157-.131-.3-.277-.453-.416q-3.294-3.054-6.588-6.107c-.145-.135-.3-.261-.442-.385-.149.087-.09.2-.1.293s0,.2,0,.308v14.275c0,.185.005.369-.005.554a1.658,1.658,0,0,1-1.639,1.514A1.657,1.657,0,0,1-504.2,394.4c-.014-.163-.009-.328-.009-.492V375.267c0-.082,0-.164,0-.246a1.623,1.623,0,0,1,1.412-1.674,1.484,1.484,0,0,1,1.217.294c.194.15.373.32.553.487q4.17,3.875,8.337,7.751C-492.538,382.018-492.387,382.155-492.194,382.332Z" fill="#14334a"/>
    <path id="Path_4691" data-name="Path 4691" d="M-519.439,395.888q-3.168,0-6.337,0c-.205,0-.41-.012-.615-.013a1.622,1.622,0,0,1-1.489-1.461,1.646,1.646,0,0,1,1.18-1.789,2.717,2.717,0,0,1,.792-.078h8.244c1.456,0,2.912-.006,4.368,0a2.992,2.992,0,0,0,2.491-1.24,3.135,3.135,0,0,0-1.809-4.951,4.963,4.963,0,0,0-1.1-.09q-3.691,0-7.383,0a8.22,8.22,0,0,1-2.19-.249,6.539,6.539,0,0,1-4.588-5.6,6.508,6.508,0,0,1,3.721-6.51,6.177,6.177,0,0,1,2.678-.587q3.63,0,7.26,0c1.866,0,3.733.007,5.6,0a1.7,1.7,0,0,1,1.367.576,1.593,1.593,0,0,1,.282,1.779,1.542,1.542,0,0,1-1.439.981c-.184.007-.369,0-.553,0H-521.02a5.053,5.053,0,0,0-1.041.073,3.126,3.126,0,0,0-2.5,3.018,3.162,3.162,0,0,0,2.45,3.13,4.218,4.218,0,0,0,.919.057q3.876,0,7.752,0a7.705,7.705,0,0,1,1.646.179,6.61,6.61,0,0,1,4.82,4.913,6.521,6.521,0,0,1-4.552,7.625,4.844,4.844,0,0,1-1.269.212c-.677.01-1.354.021-2.03.022C-516.362,395.891-517.9,395.888-519.439,395.888Z" fill="#14334a"/>
    <path id="Path_4692" data-name="Path 4692" d="M-530.542,384.58V393.8c0,.184,0,.369-.007.553a1.659,1.659,0,0,1-1.629,1.524,1.667,1.667,0,0,1-1.685-1.468,4.458,4.458,0,0,1-.012-.491q0-9.316,0-18.633c0-.123,0-.246,0-.369a1.689,1.689,0,0,1,1.7-1.6,1.691,1.691,0,0,1,1.628,1.6c0,.184,0,.369,0,.553Z" fill="#14334a"/>
    <path id="Path_4693" data-name="Path 4693" d="M-477.53,384.623v-6.4a6.2,6.2,0,0,1,.082-1.225,4.65,4.65,0,0,1,4.488-3.675c3.958.009,7.917.022,11.875-.005a4.663,4.663,0,0,1,4.618,4.5c0,.143,0,.287,0,.43q0,6.369,0,12.738a6.779,6.779,0,0,1-.1,1.224,4.622,4.622,0,0,1-4.177,3.653c-.185.007-.369.008-.554.008q-5.722,0-11.444,0a4.741,4.741,0,0,1-1.041-.062,4.589,4.589,0,0,1-3.661-3.56,4.921,4.921,0,0,1-.089-1.225Zm3.331,6.252c0,.164.005.328.005.492a1.275,1.275,0,0,0,1.2,1.178c.164-.008.328,0,.492,0h11.011c.144,0,.288,0,.431,0a1.291,1.291,0,0,0,1.255-1.131,3.492,3.492,0,0,0,.016-.491q0-6.306,0-12.612a4.113,4.113,0,0,0-.009-.43,1.324,1.324,0,0,0-1.308-1.224c-.1-.005-.2,0-.308,0h-11.2c-.123,0-.247,0-.369,0a1.3,1.3,0,0,0-1.22,1.236c.006.164,0,.328,0,.492v12.489Z" fill="#14334a"/>
    <path id="Path_4694" data-name="Path 4694" d="M-445.929,395.888q-2.892,0-5.783,0c-.226,0-.451-.014-.677-.013a1.6,1.6,0,0,1-1.486-1.528c0-.164,0-.328,0-.492V375.4c0-.164-.005-.328,0-.492a1.66,1.66,0,0,1,1.468-1.563,3.628,3.628,0,0,1,.43-.011c3.876,0,7.752-.023,11.628.007a7.407,7.407,0,0,1,6.849,4.309,6.371,6.371,0,0,1,.71,2.777c.011.307.012.615.013.923,0,2.317-.006,4.635,0,6.952a6.977,6.977,0,0,1-.711,3.273,7.49,7.49,0,0,1-5.681,4.237,9.915,9.915,0,0,1-1.533.077C-442.443,395.894-444.186,395.888-445.929,395.888Zm-4.622-4.105c0,.237-.119.535.071.7s.472.053.713.054c1.272.006,2.544,0,3.816,0q2.86,0,5.722,0a4.206,4.206,0,0,0,4.06-3.456,5.845,5.845,0,0,0,.059-1.043q.007-3.445,0-6.892c0-.185-.007-.369-.011-.554a3.535,3.535,0,0,0-.211-1.081,4.256,4.256,0,0,0-4.048-2.857c-3.24-.011-6.481,0-9.722,0-.082,0-.164,0-.246,0-.16,0-.209.093-.209.234,0,.164,0,.328,0,.492v7.2Q-450.556,388.183-450.551,391.783Z" fill="#14334a"/>
    <path id="Path_4695" data-name="Path 4695" d="M-468.658,384.605c0-.287,0-.574,0-.861a1.66,1.66,0,0,1,1.616-1.549,1.645,1.645,0,0,1,1.708,1.514,13.783,13.783,0,0,1,0,1.783,1.653,1.653,0,0,1-1.4,1.5,1.693,1.693,0,0,1-1.83-1.047,1.531,1.531,0,0,1-.1-.541c-.008-.266,0-.533,0-.8Z" fill="#14334a"/>
  </g>
</svg>
