<?xml version="1.0" standalone="no"?>
<!DOCTYPE svg PUBLIC "-//W3C//DTD SVG 20010904//EN"
 "http://www.w3.org/TR/2001/REC-SVG-20010904/DTD/svg10.dtd">
<svg version="1.0" xmlns="http://www.w3.org/2000/svg"
 width="1968.000000pt" height="1968.000000pt" viewBox="0 0 1968.000000 1968.000000"
 preserveAspectRatio="xMidYMid meet">
<metadata>
Created by potrace 1.14, written by Peter Selinger 2001-2017
</metadata>
<g transform="translate(0.000000,1968.000000) scale(0.100000,-0.100000)"
fill="#000000" stroke="none">
<path d="M0 9840 l0 -4430 198 0 198 0 0 4430 0 4430 -198 0 -198 0 0 -4430z"/>
<path d="M799 14268 c-3 -8 -4 -8835 -1 -8845 3 -10 52 -13 198 -12 l194 1 0
46 c1 63 1 8658 0 8745 l0 67 -195 0 c-107 0 -195 -1 -196 -2z"/>
<path d="M1577 14263 c-3 -7 -2 -8807 2 -8841 1 -10 44 -12 196 -12 l195 1 0
4430 0 4429 -194 0 c-107 0 -197 -3 -199 -7z"/>
<path d="M2365 9843 l0 -4428 1335 0 c1184 0 1417 3 1535 19 17 2 53 7 80 10
28 3 59 8 70 10 35 7 110 19 125 21 8 1 24 4 35 8 11 3 34 9 50 11 17 3 45 10
63 15 17 5 32 8 32 5 0 -3 8 0 18 5 9 5 31 11 47 14 17 3 49 12 73 21 23 8 42
13 42 10 0 -2 14 2 30 11 25 13 29 20 25 43 -3 15 -7 60 -10 101 -3 40 -7 76
-10 80 -2 4 -703 7 -1557 7 -854 -1 -1562 0 -1573 2 -18 3 -20 11 -19 72 1 38
4 76 7 84 4 9 3 17 -1 20 -5 3 -7 142 -3 210 1 4 15 6 31 4 17 -3 30 -1 30 3
0 4 15 4 33 0 17 -4 46 -4 62 -1 17 3 49 3 72 -1 23 -3 48 -2 55 2 7 4 18 3
25 -3 8 -6 13 -6 13 -1 0 6 18 7 45 3 25 -4 48 -3 51 2 3 4 12 4 21 -1 9 -5
29 -5 45 -1 15 5 30 5 33 0 2 -4 19 -5 37 -1 18 4 52 4 75 1 23 -4 48 -3 55 1
7 4 18 3 25 -3 9 -7 13 -7 13 1 0 7 8 8 23 3 12 -5 36 -6 52 -2 17 3 49 3 72
-1 23 -3 48 -2 55 2 7 4 18 3 25 -3 8 -6 13 -6 13 -1 0 6 18 7 45 3 25 -4 48
-3 51 1 2 4 17 5 32 2 15 -3 32 -5 37 -5 9 1 34 1 90 2 11 0 29 0 40 0 11 -1
26 -1 33 -1 14 0 136 1 155 0 6 0 26 0 42 0 61 1 70 1 90 1 11 -1 27 -1 35 -1
59 2 164 -1 170 -4 3 -2 12 0 20 5 9 5 19 5 27 -2 9 -7 13 -7 13 1 0 7 8 8 23
3 12 -5 36 -6 52 -2 17 3 49 3 72 -1 23 -3 48 -2 55 2 7 4 18 3 25 -3 8 -6 13
-6 13 -1 0 6 18 7 45 3 25 -4 48 -4 50 0 2 4 25 4 49 0 25 -4 51 -3 58 1 7 4
18 3 25 -3 9 -7 13 -7 13 1 0 7 8 8 23 3 12 -5 36 -6 52 -2 17 3 49 3 72 -1
23 -3 48 -2 55 2 7 4 18 3 25 -3 8 -6 13 -6 13 -1 0 6 18 7 45 3 25 -4 48 -4
50 0 2 4 25 4 49 0 25 -4 51 -3 58 1 7 4 18 3 25 -3 9 -7 13 -7 13 1 0 7 8 8
24 1 13 -5 26 -6 29 -3 3 3 32 4 64 3 32 -1 64 -1 71 -1 16 1 59 1 75 0 6 0
28 1 49 2 l36 2 -1 193 c0 130 -4 194 -11 197 -6 2 -715 3 -1576 3 l-1565 -1
2 175 c1 96 2 185 3 196 l0 21 1528 1 c840 0 1548 1 1574 1 l46 1 -1 195 c0
190 -1 195 -21 196 -12 0 -720 1 -1573 1 -1116 1 -1553 4 -1554 12 -2 27 -1
162 1 171 1 6 1 12 0 15 -6 15 -4 130 3 130 5 0 5 5 2 11 -6 9 -11 779 -5 804
1 6 1 12 0 15 -6 14 -4 130 2 130 4 0 5 6 2 14 -9 23 -10 386 -1 386 5 0 6 4
3 9 -6 9 -10 87 -7 131 2 22 5 19 25 -20 28 -54 112 -214 172 -327 56 -105
116 -220 186 -353 160 -303 219 -414 309 -585 l80 -150 220 0 c120 0 219 1
219 3 0 2 -24 50 -54 105 -29 56 -75 143 -101 192 -26 50 -64 122 -85 160 -20
39 -68 129 -105 200 -37 72 -82 157 -100 190 -18 33 -65 123 -106 200 -40 77
-89 170 -109 207 -58 110 -120 227 -171 326 -27 50 -72 136 -100 190 -29 53
-66 124 -83 157 -17 33 -34 62 -38 63 -5 2 -8 10 -8 18 0 8 -11 32 -25 54 -14
22 -25 46 -25 55 0 8 -4 15 -9 15 -5 0 -13 9 -16 21 -4 11 -22 48 -42 82 l-35
62 -1 418 c-1 229 0 417 4 417 3 0 22 -33 43 -72 21 -40 54 -102 73 -138 19
-36 55 -105 81 -155 25 -49 49 -91 54 -93 4 -2 8 -11 8 -21 0 -9 4 -21 9 -26
9 -10 37 -62 171 -320 75 -144 153 -292 190 -360 15 -27 67 -126 116 -220 49
-93 101 -192 115 -220 60 -112 154 -292 168 -322 8 -18 19 -33 23 -33 4 0 8
-8 8 -18 0 -10 4 -22 9 -27 5 -6 37 -64 71 -130 35 -66 79 -151 100 -190 21
-38 63 -119 95 -180 32 -60 80 -153 107 -205 28 -52 54 -99 59 -105 5 -5 9
-17 9 -26 0 -10 3 -19 8 -21 4 -1 24 -34 44 -73 20 -38 50 -95 66 -125 l30
-55 221 0 c121 -1 221 2 221 5 0 3 -8 21 -18 40 -90 171 -151 288 -187 355
-24 44 -70 132 -102 195 -61 116 -126 239 -227 430 -31 58 -71 134 -88 170
-18 36 -35 67 -38 70 -3 3 -20 34 -38 70 -17 36 -54 106 -80 155 -26 50 -79
149 -116 220 -38 72 -88 166 -111 210 -24 44 -66 125 -94 180 -29 54 -57 105
-63 112 -6 7 -7 13 -4 13 4 0 -1 12 -11 28 -10 15 -36 63 -58 107 -22 44 -42
82 -45 85 -3 3 -20 34 -39 70 -18 36 -55 106 -81 155 -26 50 -75 144 -110 210
-34 66 -77 147 -95 180 -18 33 -60 114 -95 180 -34 66 -82 156 -105 200 -97
184 -171 324 -199 380 -17 33 -33 62 -36 65 -3 3 -18 31 -34 64 -27 55 -29 65
-28 185 0 69 1 131 2 136 1 6 1 12 0 15 -6 15 -4 130 3 130 5 0 5 5 2 10 -7
11 -10 398 -4 405 3 2 28 -42 57 -98 60 -116 168 -322 250 -477 30 -58 80
-154 111 -215 31 -60 58 -112 61 -115 3 -3 12 -18 20 -35 8 -16 21 -41 29 -54
9 -13 16 -30 17 -38 1 -8 7 -20 13 -27 6 -7 33 -55 59 -107 27 -52 64 -123 83
-159 19 -36 38 -68 44 -72 5 -4 6 -8 1 -8 -5 0 -4 -6 1 -12 6 -7 35 -60 66
-118 30 -58 76 -145 102 -195 98 -184 179 -341 194 -372 8 -18 19 -33 23 -33
4 0 8 -6 8 -13 0 -8 20 -51 45 -96 24 -46 50 -96 57 -112 7 -16 16 -29 20 -29
5 0 8 -8 8 -18 0 -10 4 -22 9 -27 5 -6 29 -48 54 -95 24 -47 63 -120 86 -162
22 -43 37 -78 33 -78 -4 0 -2 -4 4 -8 6 -4 44 -70 84 -147 40 -77 87 -167 105
-200 18 -33 60 -112 93 -175 33 -63 80 -153 104 -200 25 -47 76 -143 113 -215
37 -71 85 -161 105 -200 87 -164 177 -335 214 -410 23 -44 43 -82 46 -85 3 -3
18 -32 35 -65 16 -33 38 -72 48 -87 10 -16 16 -28 13 -28 -4 0 4 -17 17 -37
12 -21 42 -76 66 -123 l44 -86 225 1 224 0 68 130 c38 72 73 136 80 143 6 6 8
12 4 12 -3 0 -2 6 4 13 5 6 40 71 77 142 37 72 85 162 105 200 21 39 61 115
90 170 93 178 132 250 142 263 6 6 8 12 4 12 -3 0 7 21 22 48 16 26 57 103 93
172 35 69 67 127 72 128 4 2 7 12 7 22 0 10 4 21 9 24 5 3 33 52 62 108 29 57
66 128 82 158 80 152 120 228 197 375 45 88 88 166 94 174 5 7 11 18 12 25 1
6 14 34 30 61 16 28 40 73 54 100 14 28 27 52 30 55 3 3 23 41 45 85 68 135
160 310 165 315 3 3 23 39 44 80 63 122 232 444 279 530 44 82 156 296 190
365 17 33 36 67 42 75 7 8 18 32 26 53 7 20 16 37 19 37 3 0 14 19 25 43 10
23 21 44 24 47 3 3 35 64 71 135 36 72 68 132 71 135 3 3 16 26 28 52 13 27
27 50 32 54 5 3 7 9 4 14 -2 4 3 18 13 31 9 13 42 72 72 130 l54 105 -32 48
c-18 26 -32 51 -32 56 0 4 -3 10 -8 12 -4 2 -40 48 -79 103 -91 126 -102 140
-106 134 -6 -6 -84 -153 -120 -224 -17 -33 -37 -68 -45 -77 -8 -10 -12 -18 -8
-18 4 0 -1 -15 -12 -32 -20 -33 -39 -69 -142 -267 -31 -58 -82 -155 -114 -216
-32 -60 -93 -175 -134 -255 -42 -80 -80 -148 -86 -152 -6 -4 -7 -8 -2 -8 5 0
4 -6 -1 -12 -6 -7 -45 -80 -88 -163 -109 -210 -146 -278 -157 -292 -6 -7 -7
-13 -3 -13 4 0 3 -6 -3 -12 -5 -7 -31 -53 -57 -103 -91 -173 -100 -190 -108
-196 -5 -3 -8 -9 -8 -13 1 -7 -33 -76 -92 -186 -22 -41 -59 -111 -81 -155 -22
-44 -46 -86 -53 -93 -7 -7 -13 -19 -13 -25 0 -7 -10 -28 -22 -47 -12 -19 -23
-39 -24 -45 -1 -5 -19 -41 -41 -80 -21 -38 -52 -97 -68 -130 -17 -33 -32 -62
-35 -65 -3 -3 -18 -32 -35 -65 -16 -33 -34 -63 -40 -67 -5 -4 -7 -8 -3 -8 4 0
-7 -26 -25 -58 -18 -31 -48 -89 -67 -127 -19 -39 -37 -72 -40 -75 -3 -3 -16
-27 -29 -55 -14 -27 -29 -53 -35 -57 -6 -4 -8 -8 -4 -8 3 0 -16 -41 -43 -91
-27 -49 -49 -92 -49 -95 0 -3 -9 -19 -21 -35 -11 -16 -17 -29 -13 -29 3 0 2
-6 -4 -12 -5 -7 -36 -62 -68 -123 -31 -60 -77 -146 -100 -190 -23 -44 -59
-111 -78 -150 -20 -38 -67 -128 -105 -200 -38 -71 -86 -164 -107 -205 -21 -41
-42 -78 -47 -81 -5 -3 -8 -9 -8 -13 3 -16 -61 -126 -69 -121 -6 3 -22 32 -37
63 -14 31 -37 74 -50 95 -13 20 -20 37 -16 37 5 0 3 4 -2 8 -10 7 -47 75 -162
302 -26 52 -51 97 -54 100 -3 3 -25 43 -49 90 -23 47 -55 108 -70 135 -15 28
-63 120 -108 205 -44 85 -94 180 -110 210 -17 30 -57 107 -90 170 -93 181
-143 274 -154 288 -6 6 -7 12 -2 12 5 0 5 4 -1 8 -5 4 -25 36 -44 72 -62 121
-174 335 -233 444 -32 60 -58 113 -58 117 0 4 -6 14 -12 21 -7 7 -34 56 -61
108 -26 52 -69 136 -95 185 -27 50 -83 158 -126 240 -125 239 -158 299 -168
313 -6 6 -7 12 -2 12 5 0 4 4 -1 8 -6 4 -25 34 -41 67 -17 33 -53 103 -81 155
-28 52 -77 147 -111 210 -33 63 -81 156 -107 205 -26 50 -78 149 -116 220 -37
72 -81 155 -97 185 -17 30 -65 123 -107 205 -43 83 -81 155 -85 160 -4 6 -42
78 -85 160 -43 83 -81 155 -85 160 -5 6 -10 18 -12 29 -3 18 29 19 1257 19
1265 0 1452 -3 1605 -26 19 -3 57 -9 83 -12 27 -4 59 -9 70 -11 12 -3 36 -7
52 -10 17 -3 48 -10 70 -16 22 -5 51 -12 65 -15 14 -2 50 -11 80 -20 30 -9 60
-18 65 -19 6 -1 23 -7 39 -13 20 -8 25 -15 18 -24 -9 -12 -95 -171 -217 -402
-64 -123 -153 -290 -201 -380 -18 -33 -50 -94 -72 -135 -109 -211 -176 -335
-184 -338 -4 -2 -8 -11 -8 -21 0 -9 -4 -21 -9 -27 -4 -5 -32 -54 -61 -109 -29
-55 -69 -129 -88 -165 -19 -36 -69 -130 -110 -210 -42 -80 -79 -146 -84 -148
-4 -2 -8 -11 -8 -21 0 -9 -4 -21 -9 -27 -5 -5 -30 -49 -56 -99 -27 -49 -68
-128 -93 -175 -25 -47 -60 -114 -79 -150 -19 -36 -56 -105 -83 -155 -26 -49
-61 -115 -76 -145 -15 -30 -42 -81 -60 -112 l-32 -56 34 -64 c19 -35 44 -81
55 -103 11 -22 33 -62 49 -90 16 -27 42 -74 57 -102 25 -49 43 -67 43 -44 0 5
6 16 13 23 6 7 29 47 50 88 20 41 59 116 85 165 27 50 86 162 132 250 46 88
86 162 89 165 3 3 23 39 44 80 45 90 135 260 165 313 12 21 22 44 22 52 0 8 4
15 9 15 5 0 14 12 20 28 5 15 33 70 62 122 28 52 81 151 117 220 36 69 90 170
119 225 29 55 66 125 81 155 14 30 29 57 32 60 3 3 17 28 31 55 14 28 43 82
64 120 20 39 69 131 108 205 39 74 86 162 104 195 19 33 47 87 64 120 62 125
103 200 113 207 6 4 8 8 4 8 -7 0 23 59 83 165 9 17 45 86 80 155 35 69 66
127 69 130 3 3 17 28 30 55 14 28 28 52 33 53 4 2 7 12 7 22 0 10 3 20 8 22 4
2 24 37 46 78 38 75 106 202 132 250 8 14 14 30 14 37 0 6 4 13 9 15 10 3 85
147 86 163 0 10 -39 34 -135 81 -30 15 -90 44 -132 65 -43 21 -78 35 -78 32 0
-3 -6 -1 -12 4 -7 5 -51 24 -98 42 -47 18 -94 37 -105 41 -79 34 -378 118
-470 134 -16 2 -55 9 -85 16 -30 6 -71 13 -90 16 -19 3 -46 7 -60 9 -14 3 -50
7 -80 10 -31 3 -71 8 -90 12 -19 4 -778 8 -1685 10 l-1650 4 0 -4428z m3310
4014 c22 -3 60 -9 85 -12 68 -9 192 -30 235 -40 11 -2 51 -11 89 -20 78 -16
335 -94 351 -105 6 -4 41 -18 79 -31 37 -13 70 -29 73 -35 2 -7 -6 -29 -20
-51 -13 -21 -27 -47 -31 -58 -3 -11 -14 -30 -24 -42 l-17 -23 -65 21 c-36 11
-73 22 -83 24 -10 2 -52 14 -95 25 -42 12 -108 28 -147 35 -38 8 -80 16 -91
19 -33 7 -95 16 -139 21 -22 3 -58 7 -80 10 -157 22 -399 26 -1814 28 l-1224
2 1 100 c0 55 1 110 1 123 l1 23 1438 -4 c790 -2 1455 -6 1477 -10z"/>
<path d="M7363 13362 c-50 -97 -103 -197 -116 -222 -14 -25 -44 -83 -68 -130
-24 -47 -46 -87 -49 -90 -4 -3 -12 -20 -19 -37 -8 -18 -18 -33 -24 -33 -6 0
-8 -3 -4 -6 3 -4 -7 -30 -22 -58 -16 -28 -51 -94 -78 -146 -133 -253 -174
-331 -209 -400 -22 -41 -43 -78 -49 -82 -5 -4 -6 -8 -1 -8 5 0 4 -6 -1 -12 -6
-7 -32 -53 -58 -103 -26 -49 -67 -126 -90 -170 -23 -44 -73 -138 -110 -210
-37 -71 -89 -170 -115 -220 -27 -49 -67 -127 -90 -173 -23 -45 -46 -85 -51
-88 -5 -3 -9 -14 -9 -24 0 -10 -3 -20 -7 -22 -5 -2 -19 -25 -33 -53 -13 -27
-29 -53 -35 -57 -5 -4 -6 -8 -1 -8 5 0 4 -6 -1 -12 -6 -7 -42 -74 -81 -148
-38 -74 -91 -175 -118 -225 -26 -49 -54 -105 -63 -122 -8 -18 -19 -33 -24 -33
-4 0 -6 -4 -2 -9 3 -5 0 -15 -7 -23 -7 -7 -32 -51 -55 -98 -24 -47 -69 -134
-101 -195 -127 -241 -182 -344 -224 -425 -25 -47 -76 -143 -113 -215 -38 -71
-76 -145 -86 -163 -17 -32 -17 -35 0 -65 42 -75 145 -262 196 -356 l13 -23 18
33 c109 213 204 391 216 407 6 6 7 12 3 12 -4 0 -3 6 2 13 6 6 36 62 68 122
122 233 148 280 157 293 6 6 7 12 2 12 -5 0 -4 4 1 8 6 4 30 45 54 92 105 207
125 245 131 250 3 3 22 39 43 80 21 41 59 116 85 165 26 50 85 162 131 250 46
88 96 183 111 210 15 28 62 118 105 200 43 83 86 164 95 180 10 17 52 95 93
175 41 80 86 165 99 190 14 25 47 88 74 140 27 52 51 97 54 100 3 3 22 39 42
80 36 72 88 171 241 460 39 74 82 158 96 185 13 28 30 57 38 66 7 9 16 27 18
39 3 13 8 26 13 29 5 3 23 35 41 71 47 94 211 404 253 478 l18 33 -78 77
c-123 122 -202 192 -215 192 -7 0 -53 -80 -104 -178z"/>
<path d="M8386 12258 c-27 -51 -61 -115 -76 -143 -15 -27 -62 -117 -105 -200
-43 -82 -84 -161 -92 -175 -11 -21 -13 -439 -13 -2374 0 -2348 0 -2349 20
-2331 11 10 20 22 20 27 0 5 8 17 17 26 19 19 164 240 215 327 58 100 80 139
102 180 l21 40 0 2311 0 2311 -25 46 c-14 26 -28 47 -31 47 -3 0 -27 -42 -53
-92z"/>
<path d="M8890 11245 c-1 -30 -2 -2538 0 -2585 0 -19 2 -22 9 -10 6 8 7 18 5
22 -3 4 -2 14 3 21 4 6 8 17 9 24 1 6 12 54 24 105 12 51 24 104 26 118 3 14
7 32 9 40 2 8 7 31 10 50 3 19 10 60 15 90 20 118 27 164 36 250 2 25 6 65 9
90 14 114 18 235 19 485 0 259 -9 439 -28 580 -2 17 -7 57 -10 90 -4 33 -9 67
-11 75 -2 8 -6 33 -10 55 -3 22 -10 67 -17 100 -6 33 -12 69 -14 80 -1 11 -3
20 -4 20 -1 0 -3 9 -5 20 -5 32 -15 79 -21 97 -8 28 -17 71 -18 91 0 9 -4 17
-9 17 -4 0 -6 4 -2 9 3 5 1 12 -5 16 -6 4 -8 10 -6 14 3 4 1 21 -4 37 l-8 29
-2 -30z"/>
<path d="M7690 10945 c-7 -8 -10 -15 -6 -15 4 0 -1 -12 -10 -26 -20 -30 -32
-51 -104 -192 -30 -59 -57 -109 -60 -112 -3 -3 -18 -30 -33 -60 -16 -30 -60
-113 -97 -185 l-68 -130 0 -2008 c0 -1877 1 -2008 16 -1995 9 8 60 50 112 93
88 73 132 113 229 205 l37 36 0 2202 c-1 1211 -1 2202 -2 2202 -1 0 -7 -7 -14
-15z"/>
<path d="M10665 9763 l0 -1108 138 -3 137 -3 0 33 c1 18 2 518 3 1110 l2 1078
-140 0 -141 0 1 -1107z"/>
<path d="M12107 9768 c0 -607 1 -1107 2 -1111 1 -10 897 -3 961 7 108 17 347
103 358 128 2 5 9 8 14 8 30 0 178 131 235 208 16 20 33 42 38 48 11 11 68
125 99 195 19 43 62 212 75 294 10 58 8 403 -2 455 -14 70 -39 177 -46 195 -5
11 -20 52 -35 90 -29 74 -114 225 -128 225 -4 0 -8 4 -8 9 0 21 -157 164 -220
200 -58 34 -143 71 -213 95 -148 50 -208 55 -687 55 l-445 1 2 -1102z m458
852 c6 -1 12 -2 15 -1 14 5 251 3 256 -2 3 -3 16 -2 29 3 13 5 25 7 26 5 2 -2
27 -6 56 -9 258 -28 454 -150 557 -346 53 -100 93 -229 104 -335 8 -81 8 -277
-1 -345 -9 -73 -35 -187 -53 -230 -1 -3 -5 -15 -9 -27 -4 -13 -11 -23 -14 -23
-4 0 -8 -6 -8 -14 0 -53 -159 -240 -239 -281 -22 -11 -41 -22 -44 -25 -8 -9
-143 -59 -175 -66 -16 -3 -41 -8 -55 -11 -50 -11 -609 -17 -620 -7 -3 3 -5
390 -5 859 l-1 854 31 3 c30 3 132 1 150 -2z"/>
<path d="M14980 10738 c-1 -142 -1 -1987 0 -2050 l0 -38 128 0 c141 0 133 -4
131 65 0 17 0 50 0 75 0 53 0 88 0 155 0 28 0 64 0 80 0 17 0 53 0 80 0 28 0
64 0 80 0 17 0 53 0 80 0 28 0 61 1 75 0 14 0 234 0 490 -1 256 -1 483 0 505
l2 40 16 -35 c8 -19 16 -37 17 -40 1 -3 6 -16 12 -30 38 -90 65 -156 67 -165
2 -5 15 -36 29 -69 15 -32 27 -62 27 -66 0 -4 6 -20 14 -36 26 -54 56 -123 56
-129 0 -3 11 -30 24 -58 13 -29 27 -63 31 -77 4 -14 17 -47 30 -75 30 -67 90
-209 91 -215 1 -6 11 -30 40 -97 12 -28 20 -54 16 -57 -3 -3 0 -6 6 -6 7 0 12
-7 12 -15 0 -8 4 -23 9 -33 13 -24 34 -73 166 -397 5 -11 9 -22 10 -25 3 -9
27 -64 35 -80 6 -12 30 -15 125 -15 l118 0 29 70 c15 39 33 80 38 93 20 46 31
72 115 277 47 116 92 224 100 240 7 17 23 55 35 85 12 30 27 66 33 80 5 14 10
28 9 33 -1 4 2 7 6 7 5 0 9 6 9 13 0 11 155 391 188 462 8 17 24 55 36 85 12
30 29 73 39 95 9 22 28 68 41 102 13 35 27 63 32 63 4 0 7 -385 7 -855 l0
-855 130 0 130 0 0 1110 0 1110 -162 -2 -163 -3 -33 -80 c-18 -44 -37 -89 -41
-100 -5 -11 -19 -45 -30 -75 -12 -30 -33 -79 -46 -108 -14 -29 -25 -57 -25
-62 0 -6 -4 -18 -10 -28 -5 -9 -32 -73 -60 -142 -28 -69 -61 -150 -74 -180
-28 -66 -72 -174 -119 -290 -19 -47 -48 -116 -63 -155 -16 -38 -27 -72 -26
-74 2 -2 0 -7 -6 -10 -5 -3 -14 -19 -20 -36 -14 -40 -60 -153 -77 -190 -7 -16
-23 -55 -35 -85 -11 -30 -30 -74 -40 -97 -11 -24 -20 -46 -20 -49 0 -3 -6 -20
-14 -37 -8 -18 -17 -41 -20 -51 -9 -28 -20 -13 -56 79 -17 44 -34 84 -38 90
-4 5 -7 15 -8 20 -1 6 -11 31 -22 55 -11 25 -44 104 -72 175 -29 72 -61 147
-71 168 -11 20 -17 37 -14 37 3 0 -1 13 -9 28 -8 16 -34 76 -57 133 -23 57
-50 124 -62 149 -11 25 -30 73 -43 107 -13 35 -28 71 -34 80 -5 10 -21 50 -36
88 -15 39 -35 88 -44 110 -16 34 -63 150 -90 220 -4 11 -7 22 -7 25 0 3 -6 16
-13 30 -8 14 -35 77 -61 140 l-46 115 -162 3 -161 2 0 -132z"/>
<path d="M18331 9760 l0 -1110 675 0 674 0 0 125 0 125 -102 1 c-57 1 -107 0
-113 -1 -5 -1 -17 -2 -25 -2 -8 0 -117 1 -242 1 -126 0 -236 0 -245 0 -10 0
-91 0 -180 0 l-163 0 0 986 0 985 -140 0 -140 0 1 -1110z"/>
<path d="M6880 9388 c-18 -35 -45 -85 -60 -113 -15 -27 -44 -84 -66 -125 -21
-41 -43 -78 -49 -82 -5 -4 -7 -8 -2 -8 4 0 -3 -17 -16 -37 -13 -21 -34 -59
-46 -85 -13 -27 -27 -50 -32 -54 -5 -3 -9 -14 -9 -24 0 -10 -3 -20 -7 -22 -5
-1 -21 -28 -38 -58 l-30 -55 0 -1488 c0 -819 2 -1490 5 -1492 7 -4 216 99 275
135 17 10 48 27 70 39 l40 21 1 169 c1 92 4 173 8 179 4 7 4 12 -1 12 -10 0
-10 91 1 108 4 7 4 12 -1 12 -10 0 -9 172 1 188 4 7 4 12 -1 12 -10 0 -10 91
1 108 4 7 4 12 -1 12 -10 0 -9 172 1 188 4 7 4 12 -1 12 -10 0 -10 91 1 108 4
7 4 12 -1 12 -10 0 -9 172 1 188 4 7 4 12 -1 12 -10 0 -10 91 1 108 4 7 4 12
-1 12 -10 0 -9 452 1 468 4 7 3 12 -1 12 -11 0 -10 50 0 68 5 6 4 12 0 12 -10
0 -9 182 1 198 3 6 3 13 -1 15 -10 6 -8 160 1 176 4 6 3 11 -1 11 -11 0 -10
50 0 68 5 6 4 12 0 12 -10 0 -9 182 1 198 3 6 3 13 -1 15 -10 6 -8 200 1 216
4 6 4 11 -1 11 -10 0 -10 91 1 108 4 7 4 12 -1 12 -10 0 -9 172 1 188 4 7 4
12 -1 12 -9 0 -10 221 0 236 3 6 2 16 -2 23 -6 8 -19 -8 -41 -51z"/>
</g>
</svg>
